<svg width="500" height="500" viewBox="0 0 500 500" fill="none" xmlns="http://www.w3.org/2000/svg">
<path d="M381.1 169.4H338.7C333.8 169.4 329.1 167.3 325.8 163.6L308.6 144.2C306 141.3 302.4 139.6 298.5 139.6C294.6 139.6 291 141.3 288.4 144.2L273.6 160.9C268.8 166.3 261.8 169.5 254.6 169.5H22.5C15.9 188.3 11.6 208.2 9.90002 228.9H229C232.9 228.9 236.5 227.3 239.2 224.5L259.6 203.2C262.1 200.5 265.7 199 269.4 199H270.2C274.1 199 277.7 200.7 280.3 203.6L297.5 223C300.8 226.7 305.5 228.8 310.4 228.8H489.2C487.5 208.2 483.2 188.2 476.6 169.4H381.1Z" fill="black"/>
<path d="M142.5 353.7C146.4 353.7 150 352.1 152.7 349.3L173.1 328C175.7 325.3 179.2 323.8 182.9 323.8H183.7C187.6 323.8 191.3 325.5 193.8 328.3L211 347.7C214.3 351.4 219 353.5 223.9 353.5H466.3C475.4 334.7 482 314.6 486 293.5H253.3C248.4 293.5 243.7 291.4 240.4 287.7L223.2 268.3C220.6 265.4 217 263.8 213.1 263.8C209.2 263.8 205.5 265.5 203 268.3L188.2 285C183.4 290.5 176.4 293.6 169.1 293.6H13.1C17.1 314.7 23.7 334.8 32.8 353.6L142.5 353.7Z" fill="black"/>
<path d="M314.4 104.5C318.3 104.5 321.9 102.9 324.6 100.2L345 78.9C347.5 76.2 351.1 74.7 354.8 74.7H355.6C359.5 74.7 363.1 76.4 365.7 79.3L382.9 98.7C386.2 102.4 390.9 104.5 395.8 104.5H441.9C398 46.2 328.2 8.39999 249.6 8.39999C171 8.39999 101.1 46.2 57.2 104.5H314.4Z" fill="black"/>
<path d="M221.8 413.1H158.8C153.9 413.1 149.2 411 145.9 407.3L128.7 387.9C126.1 385 122.5 383.4 118.6 383.4C114.7 383.4 111 385.1 108.5 387.9L93.7 404.6C88.9 410.1 81.9 413.2 74.6 413.2H73.6C117.5 460.2 180 489.7 249.5 489.7C319 489.7 381.4 460.2 425.4 413.2L221.8 413.1Z" fill="black"/>
</svg>
